<?xml version="1.0" standalone="no"?>
<!DOCTYPE svg PUBLIC "-//W3C//DTD SVG 20010904//EN"
 "http://www.w3.org/TR/2001/REC-SVG-20010904/DTD/svg10.dtd">
<svg version="1.0" xmlns="http://www.w3.org/2000/svg"
 width="1280.000000pt" height="1191.000000pt" viewBox="0 0 1280.000000 1191.000000"
 preserveAspectRatio="xMidYMid meet">
<metadata>
Created by potrace 1.15, written by Peter Selinger 2001-2017
</metadata>
<g transform="translate(0.000000,1191.000000) scale(0.100000,-0.100000)"
fill="#000000" stroke="none">
<path d="M3305 11903 c-621 -42 -1266 -270 -1783 -630 -603 -421 -1077 -1041
-1319 -1728 -78 -221 -147 -517 -180 -765 -22 -166 -24 -694 -5 -890 65 -635
210 -1153 472 -1679 376 -753 920 -1411 1910 -2312 136 -123 306 -273 925
-819 220 -194 499 -443 620 -554 889 -814 1529 -1519 2065 -2274 73 -103 144
-202 157 -219 l24 -33 213 0 213 0 78 118 c462 695 928 1255 1610 1937 413
414 643 627 1395 1295 636 565 861 772 1184 1090 725 715 1153 1276 1462 1915
242 501 375 975 435 1555 21 192 18 702 -4 870 -77 587 -287 1140 -611 1604
-409 587 -1002 1049 -1658 1295 -394 147 -745 216 -1163 228 -880 24 -1708
-265 -2380 -832 -140 -118 -388 -372 -485 -497 -41 -54 -77 -97 -80 -97 -3 0
-38 42 -78 94 -140 179 -364 403 -557 558 -639 513 -1422 784 -2239 775 -94
-1 -193 -3 -221 -5z"/>
</g>
</svg>
